<svg width="1872" height="1597" viewBox="0 0 1872 1597" fill="none" xmlns="http://www.w3.org/2000/svg">
<path d="M109.708 1010.06C199.586 1133.12 491.733 1349.97 941.299 1232.88C1390.86 1115.79 1726.04 839.172 1837.43 715.496" stroke="white" stroke-opacity="0.22" stroke-width="2"/>
<path d="M96.1201 986.52C185.998 1109.58 478.145 1326.43 927.711 1209.34C1377.28 1092.26 1712.45 815.635 1823.85 691.96" stroke="white" stroke-opacity="0.22" stroke-width="2"/>
<path d="M82.5312 962.983C172.409 1086.04 464.556 1302.89 914.122 1185.81C1363.69 1068.72 1698.86 792.099 1810.26 668.424" stroke="white" stroke-opacity="0.22" stroke-width="2"/>
<path d="M68.9424 939.448C158.82 1062.51 450.967 1279.36 900.533 1162.27C1350.1 1045.19 1685.28 768.564 1796.67 644.889" stroke="white" stroke-opacity="0.22" stroke-width="2"/>
<path d="M55.3545 915.912C145.232 1038.97 437.379 1255.82 886.945 1138.74C1336.51 1021.65 1671.69 745.028 1783.08 621.352" stroke="white" stroke-opacity="0.22" stroke-width="2"/>
<path d="M41.7656 892.376C131.643 1015.44 423.79 1232.29 873.356 1115.2C1322.92 998.115 1658.1 721.492 1769.49 597.816" stroke="white" stroke-opacity="0.22" stroke-width="2"/>
<path d="M28.1768 868.84C118.055 991.9 410.201 1208.75 859.767 1091.66C1309.33 974.578 1644.51 697.956 1755.9 574.28" stroke="white" stroke-opacity="0.22" stroke-width="2"/>
<path d="M14.5889 845.304C104.467 968.364 396.614 1185.21 846.18 1068.13C1295.75 951.042 1630.92 674.42 1742.31 550.744" stroke="white" stroke-opacity="0.22" stroke-width="2"/>
<path d="M1 821.768C90.8777 944.828 383.025 1161.68 832.591 1044.59C1282.16 927.506 1617.33 650.884 1728.73 527.208" stroke="white" stroke-opacity="0.22" stroke-width="2"/>
</svg>
