<svg width="891" height="484" viewBox="0 0 891 484" fill="#ffff" xmlns="http://www.w3.org/2000/svg">
<path d="M87.3477 118.226C86.5896 111.824 83.515 106.854 78.1239 103.316C72.7328 99.7779 66.1203 98.009 58.2864 98.009C52.5584 98.009 47.5464 98.9356 43.2503 100.789C38.9964 102.642 35.6691 105.19 33.2684 108.433C30.9098 111.676 29.7305 115.362 29.7305 119.489C29.7305 122.943 30.5518 125.912 32.1944 128.397C33.8791 130.84 36.0271 132.883 38.6384 134.525C41.2497 136.126 43.9874 137.452 46.8514 138.505C49.7154 139.516 52.3478 140.337 54.7485 140.969L67.8893 144.507C71.2587 145.392 75.0072 146.613 79.1348 148.171C83.3044 149.73 87.2846 151.857 91.0752 154.552C94.9079 157.206 98.0667 160.617 100.552 164.787C103.037 168.957 104.279 174.074 104.279 180.139C104.279 187.13 102.447 193.448 98.7828 199.092C95.1606 204.736 89.8538 209.221 82.8622 212.549C75.9127 215.876 67.4681 217.54 57.5283 217.54C48.2624 217.54 40.2389 216.044 33.4579 213.054C26.7191 210.064 21.4122 205.894 17.5374 200.545C13.7046 195.196 11.5356 188.984 11.0302 181.908H27.2034C27.6246 186.793 29.2672 190.837 32.1312 194.038C35.0374 197.197 38.7016 199.555 43.124 201.114C47.5885 202.63 52.3899 203.388 57.5283 203.388C63.509 203.388 68.8791 202.419 73.6384 200.482C78.3977 198.502 82.1673 195.765 84.947 192.269C87.7268 188.731 89.1167 184.603 89.1167 179.886C89.1167 175.59 87.9163 172.094 85.5156 169.399C83.1149 166.703 79.9561 164.513 76.0391 162.828C72.1221 161.144 67.8893 159.67 63.3406 158.406L47.42 153.857C37.3117 150.951 29.3093 146.803 23.4128 141.411C17.5163 136.02 14.5681 128.966 14.5681 120.247C14.5681 113.003 16.5265 106.685 20.4435 101.294C24.4026 95.861 29.7094 91.6492 36.3641 88.6588C43.0608 85.6263 50.5367 84.1101 58.7918 84.1101C67.1312 84.1101 74.5439 85.6053 81.0301 88.5956C87.5162 91.5439 92.6546 95.5872 96.4452 100.726C100.278 105.864 102.3 111.697 102.51 118.226H87.3477Z" fill="white"/>
<path d="M724.094 128.447V227.543C723.977 245.446 714.742 254.455 696.39 254.57H640.892V236.552H693.487C701.52 236.495 705.566 232.72 705.625 225.227V128.447H724.094Z" fill="white"/>
<path d="M648.398 128.447V188.248C648.457 196.427 652.766 200.546 661.327 200.603H702.752V218.535H657.545C639.192 218.477 629.958 209.669 629.84 192.109V128.447H648.398Z" fill="white"/>
<path d="M486.593 130.409V130.495L517.376 193.642L548.423 130.409H567.508L522.829 219.982H512.363L467.595 130.409L486.593 130.409Z" fill="white"/>
<path d="M479.382 219.469H469.795L424.764 129.896H443.937L475.688 193.987L485.978 173.481L493.102 190.298L479.382 219.469Z" fill="white"/>
<path d="M800.926 217.764V206.392L856.017 135.634V134.623H802.695V120.725H875.222V132.602L821.648 202.854V203.865H876.991V217.764H800.926Z" fill="white"/>
<path d="M228.574 218.637C219.813 218.637 212.127 216.552 205.514 212.382C198.944 208.213 193.806 202.379 190.099 194.882C186.435 187.385 184.603 178.625 184.603 168.601C184.603 158.493 186.435 149.669 190.099 142.13C193.806 134.591 198.944 128.736 205.514 124.567C212.127 120.397 219.813 118.312 228.574 118.312C237.334 118.312 245 120.397 251.57 124.567C258.183 128.736 263.321 134.591 266.985 142.13C270.692 149.669 272.545 158.493 272.545 168.601C272.545 178.625 270.692 187.385 266.985 194.882C263.321 202.379 258.183 208.213 251.57 212.382C245 216.552 237.334 218.637 228.574 218.637ZM228.574 205.243C235.229 205.243 240.704 203.538 245 200.126C249.296 196.715 252.476 192.229 254.54 186.669C256.603 181.11 257.635 175.087 257.635 168.601C257.635 162.115 256.603 156.071 254.54 150.469C252.476 144.867 249.296 140.34 245 136.886C240.704 133.432 235.229 131.706 228.574 131.706C221.919 131.706 216.444 133.432 212.148 136.886C207.852 140.34 204.672 144.867 202.608 150.469C200.544 156.071 199.513 162.115 199.513 168.601C199.513 175.087 200.544 181.11 202.608 186.669C204.672 192.229 207.852 196.715 212.148 200.126C216.444 203.538 221.919 205.243 228.574 205.243Z" fill="white"/>
<path d="M370.705 83.8854V213.271H355.795V83.8854H370.705Z" fill="white"/>
<mask id="mask0_919_6360" style="mask-type:luminance" maskUnits="userSpaceOnUse" x="500" y="-1" width="215" height="159">
<path d="M714.027 -0.00158626L500.486 49.1607L603.188 157.354C603.198 157.363 603.214 157.363 603.225 157.348L714.027 -0.00158626Z" fill="white"/>
</mask>
<g mask="url(#mask0_919_6360)">
<path opacity="0.5" d="M688.115 81.2933L534.258 83.1895L610.301 194.375C610.321 194.403 610.356 194.402 610.376 194.372L688.115 81.2933Z" fill="white"/>
<path opacity="0.5" d="M700.457 46.1966L546.6 48.0927L622.643 159.278C622.663 159.306 622.699 159.305 622.719 159.276L700.457 46.1966Z" fill="white"/>
<path opacity="0.5" d="M693.674 -16.2067L539.817 -14.3106L615.86 96.8751C615.88 96.903 615.916 96.9019 615.935 96.8723L693.674 -16.2067Z" fill="white"/>
<path opacity="0.5" d="M725.02 11.8377L571.163 13.7339L647.206 124.919C647.227 124.947 647.262 124.946 647.282 124.917L725.02 11.8377Z" fill="white"/>
<path opacity="0.5" d="M640.099 -6.05144L486.242 -4.15534L562.286 107.03C562.305 107.058 562.341 107.057 562.361 107.028L640.099 -6.05144Z" fill="white"/>
<path opacity="0.5" d="M690.965 99.1868L537.109 101.083L613.152 212.269C613.171 212.297 613.207 212.295 613.227 212.266L690.965 99.1868Z" fill="white"/>
<path opacity="0.5" d="M645.41 50.5121L491.553 52.4082L567.596 163.594C567.616 163.622 567.651 163.621 567.671 163.591L645.41 50.5121Z" fill="white"/>
<path opacity="0.5" d="M687.743 142.619L533.886 144.515L609.93 255.701C609.949 255.729 609.985 255.728 610.005 255.698L687.743 142.619Z" fill="white"/>
<path opacity="0.5" d="M753.108 -19.4641L599.252 -17.5679L675.295 93.6177C675.315 93.6456 675.35 93.6446 675.37 93.615L753.108 -19.4641Z" fill="white"/>
<path opacity="0.5" d="M625.131 -10.1697L471.274 -8.2735L547.317 102.912C547.337 102.94 547.373 102.939 547.392 102.909L625.131 -10.1697Z" fill="white"/>
<path opacity="0.5" d="M635.23 42.6668L481.374 44.5629L557.417 155.749C557.436 155.777 557.472 155.775 557.492 155.746L635.23 42.6668Z" fill="white"/>
<path opacity="0.5" d="M745.437 31.323L591.58 33.2192L667.623 144.405C667.644 144.433 667.678 144.432 667.698 144.402L745.437 31.323Z" fill="white"/>
<path opacity="0.5" d="M624.014 -17.6716L470.157 -15.7754L546.2 95.4102C546.22 95.4382 546.255 95.437 546.275 95.4074L624.014 -17.6716Z" fill="white"/>
<path opacity="0.5" d="M742.313 -13.4587L588.457 -11.5626L664.5 99.6231C664.519 99.6511 664.555 99.6499 664.575 99.6203L742.313 -13.4587Z" fill="white"/>
<path opacity="0.5" d="M750.941 3.50708L597.084 5.40325L673.127 116.589C673.147 116.617 673.183 116.616 673.202 116.586L750.941 3.50708Z" fill="white"/>
<path opacity="0.5" d="M739.013 49.7263L585.156 51.6225L661.199 162.808C661.219 162.836 661.254 162.835 661.274 162.805L739.013 49.7263Z" fill="white"/>
<path opacity="0.5" d="M642.804 65.2122L488.947 67.1084L564.99 178.294C565.01 178.322 565.045 178.321 565.065 178.291L642.804 65.2122Z" fill="white"/>
<path opacity="0.5" d="M621.502 -1.45964L467.646 0.43653L543.689 111.622C543.708 111.65 543.744 111.649 543.764 111.619L621.502 -1.45964Z" fill="white"/>
<path opacity="0.5" d="M686.587 139.176L532.73 141.072L608.773 252.257C608.793 252.285 608.829 252.284 608.849 252.255L686.587 139.176Z" fill="white"/>
<path opacity="0.5" d="M712.342 102.314L558.485 104.21L634.528 215.396C634.548 215.424 634.583 215.423 634.603 215.393L712.342 102.314Z" fill="white"/>
<path opacity="0.5" d="M731.882 28.6815L578.025 30.5776L654.068 141.763C654.088 141.791 654.123 141.79 654.143 141.76L731.882 28.6815Z" fill="white"/>
<path opacity="0.5" d="M705.286 26.3636L551.429 28.2597L627.473 139.445C627.492 139.473 627.528 139.472 627.548 139.443L705.286 26.3636Z" fill="white"/>
<path opacity="0.5" d="M690.503 60.158L536.647 62.0541L612.69 173.24C612.709 173.268 612.745 173.267 612.765 173.237L690.503 60.158Z" fill="white"/>
</g>
<path d="M64.4791 320.927C65.5042 320.927 66.8283 320.714 68.4514 320.287C70.0745 319.86 71.2705 319.475 72.0394 319.133C72.7228 318.792 73.1926 318.621 73.4489 318.621C73.7052 318.621 74.0042 318.706 74.3459 318.877C74.773 322.721 75.2428 326.437 75.7554 330.025C76.3534 333.613 76.9941 337.073 77.6775 340.405C77.5066 340.575 77.2077 340.789 76.7805 341.045C76.3534 341.302 75.8408 341.387 75.2429 341.302C74.3032 341.302 73.7052 341.088 73.4489 340.661C72.5946 336.304 71.1851 332.674 69.2203 329.769C67.2555 326.865 64.6927 325.412 61.5319 325.412H45.6426V389.226C45.6426 391.105 45.6426 392.856 45.6426 394.48C45.728 396.103 45.9416 397.427 46.2833 398.452C46.4541 398.879 47.1376 399.263 48.3335 399.605C49.5295 399.947 50.7682 400.203 52.0496 400.374C53.4164 400.459 54.3561 400.502 54.8687 400.502C55.1249 400.844 55.2531 401.442 55.2531 402.296C55.3385 403.15 55.2104 403.748 54.8687 404.09C52.3059 403.919 49.8285 403.791 47.4366 403.706C45.13 403.535 42.7381 403.449 40.2607 403.449C37.8688 403.449 35.4341 403.535 32.9568 403.706C30.4794 403.791 27.9593 403.919 25.3965 404.09C25.0548 403.748 24.884 403.15 24.884 402.296C24.9694 401.442 25.1403 400.844 25.3965 400.502C25.9091 400.502 26.8488 400.459 28.2156 400.374C29.5824 400.203 30.8638 399.947 32.0598 399.605C33.3412 399.263 34.0246 398.879 34.11 398.452C34.4517 397.427 34.6226 396.103 34.6226 394.48C34.708 392.856 34.7507 391.105 34.7507 389.226V325.412H18.6051C15.4444 325.412 12.8816 326.865 10.9168 329.769C8.95196 332.674 7.49971 336.304 6.56002 340.661C6.30374 341.088 5.70575 341.302 4.76606 341.302C4.16808 341.387 3.65552 341.302 3.22839 341.045C2.88668 340.789 2.6304 340.575 2.45955 340.405C3.14296 337.073 3.74095 333.613 4.2535 330.025C4.76606 326.437 5.23591 322.721 5.66304 318.877C6.09017 318.706 6.60273 318.706 7.20072 318.877C7.7987 318.963 8.26855 319.091 8.61025 319.262C9.37909 319.603 10.4469 319.988 11.8137 320.415C13.266 320.757 14.5047 320.927 15.5298 320.927H64.4791ZM80.7078 372.696C80.6224 377.992 81.5193 382.434 83.3987 386.022C85.2781 389.61 87.7982 392.301 90.959 394.095C94.1197 395.804 97.5368 396.658 101.21 396.658C103.517 396.658 105.61 396.273 107.489 395.505C109.368 394.65 110.949 393.711 112.23 392.686C113.512 391.575 114.409 390.721 114.921 390.123C115.007 390.123 115.177 390.294 115.434 390.635C115.775 390.892 115.946 391.276 115.946 391.789C115.946 392.472 115.69 393.241 115.177 394.095C114.409 395.291 113.213 396.743 111.589 398.452C109.966 400.075 107.916 401.527 105.439 402.809C102.961 404.09 100.1 404.731 96.8534 404.731C91.9841 404.731 87.67 403.577 83.9113 401.271C80.1525 398.964 77.2053 395.846 75.0697 391.917C72.934 387.987 71.8662 383.588 71.8662 378.718C71.8662 374.532 72.5923 370.646 74.0445 367.058C75.5822 363.384 77.547 360.224 79.939 357.575C82.4163 354.842 85.1073 352.706 88.0118 351.168C90.9163 349.631 93.7353 348.862 96.469 348.862C100.228 348.862 103.303 349.503 105.695 350.784C108.172 352.065 110.094 353.646 111.461 355.525C112.914 357.404 113.896 359.284 114.409 361.163C115.007 363.043 115.305 364.623 115.305 365.904C115.305 367.698 115.092 369.108 114.665 370.133C114.238 371.158 113.426 371.713 112.23 371.799C111.461 371.884 109.924 371.97 107.617 372.055C105.396 372.055 102.833 372.098 99.9287 372.183C97.0242 372.269 94.1625 372.354 91.3434 372.44C88.5243 372.525 86.1324 372.61 84.1676 372.696C82.2028 372.696 81.0495 372.696 80.7078 372.696ZM81.3485 368.083H101.723C102.492 368.083 103.132 367.869 103.645 367.442C104.243 367.015 104.584 366.246 104.67 365.136C104.755 364.11 104.456 362.658 103.773 360.779C103.09 358.899 101.979 357.191 100.441 355.653C98.989 354.116 96.9815 353.347 94.4187 353.347C91.7705 353.347 89.5921 354.116 87.8836 355.653C86.1751 357.105 84.8083 358.814 83.7831 360.779C82.8435 362.658 82.16 364.367 81.7329 365.904C81.3912 367.357 81.2631 368.083 81.3485 368.083ZM168.348 355.397C168.348 357.618 167.836 359.198 166.811 360.138C165.785 360.992 164.718 361.419 163.607 361.419C162.24 361.419 160.959 360.822 159.763 359.626C158.567 358.43 157.414 357.49 156.303 356.806C154.936 355.867 153.826 355.226 152.972 354.884C152.117 354.543 150.879 354.372 149.255 354.372C147.034 354.372 144.813 355.226 142.592 356.935C140.457 358.558 138.663 360.907 137.21 363.982C135.844 367.058 135.16 370.816 135.16 375.259C135.16 382.52 137.125 387.859 141.055 391.276C144.984 394.693 149.768 396.402 155.406 396.402C158.909 396.402 161.77 395.59 163.992 393.967C166.298 392.344 167.878 391.062 168.733 390.123C168.818 390.123 168.989 390.294 169.245 390.635C169.587 390.892 169.758 391.276 169.758 391.789C169.758 392.472 169.502 393.241 168.989 394.095C168.22 395.291 167.024 396.743 165.401 398.452C163.778 400.075 161.728 401.527 159.25 402.809C156.773 404.09 153.911 404.731 150.665 404.731C145.625 404.731 141.183 403.535 137.338 401.143C133.58 398.751 130.633 395.633 128.497 391.789C126.447 387.944 125.422 383.844 125.422 379.487C125.422 374.874 126.361 370.731 128.241 367.058C130.205 363.299 132.683 360.053 135.673 357.319C138.748 354.585 142.037 352.492 145.539 351.04C149.127 349.588 152.544 348.862 155.791 348.862C160.404 348.862 164.162 349.887 167.067 351.937C167.323 352.193 167.579 352.663 167.836 353.347C168.177 354.03 168.348 354.714 168.348 355.397ZM211.927 348.862C216.454 348.862 219.871 349.802 222.178 351.681C224.484 353.56 226.022 356.465 226.791 360.394C227.645 364.324 228.072 369.321 228.072 375.387V389.226C228.072 391.105 228.072 392.856 228.072 394.48C228.158 396.103 228.371 397.427 228.713 398.452C228.884 398.879 229.482 399.263 230.507 399.605C231.618 399.947 232.771 400.203 233.967 400.374C235.248 400.459 236.145 400.502 236.658 400.502C236.914 400.844 237.042 401.442 237.042 402.296C237.128 403.15 236.999 403.748 236.658 404.09C234.095 403.919 231.831 403.791 229.866 403.706C227.901 403.535 225.68 403.449 223.203 403.449C220.811 403.449 218.633 403.535 216.668 403.706C214.789 403.791 212.567 403.919 210.005 404.09C209.663 403.748 209.492 403.15 209.492 402.296C209.578 401.442 209.748 400.844 210.005 400.502C210.517 400.502 211.371 400.459 212.567 400.374C213.763 400.203 214.917 399.947 216.027 399.605C217.138 399.263 217.736 398.879 217.821 398.452C218.163 397.427 218.334 396.103 218.334 394.48C218.419 392.856 218.462 391.105 218.462 389.226V376.668C218.462 371.457 218.12 367.399 217.437 364.495C216.753 361.505 215.515 359.369 213.721 358.088C211.927 356.806 209.407 356.166 206.16 356.166C204.623 356.166 202.914 356.678 201.035 357.703C199.241 358.643 197.661 359.668 196.294 360.779C194.927 361.889 194.243 362.658 194.243 363.085V389.226C194.243 391.105 194.243 392.856 194.243 394.48C194.329 396.103 194.542 397.427 194.884 398.452C195.055 398.879 195.653 399.263 196.678 399.605C197.789 399.947 198.942 400.203 200.138 400.374C201.419 400.459 202.316 400.502 202.829 400.502C203.085 400.844 203.213 401.442 203.213 402.296C203.299 403.15 203.171 403.748 202.829 404.09C200.266 403.919 198.002 403.791 196.037 403.706C194.073 403.535 191.852 403.449 189.374 403.449C186.982 403.449 184.804 403.535 182.839 403.706C180.96 403.791 178.739 403.919 176.176 404.09C175.834 403.748 175.663 403.15 175.663 402.296C175.749 401.442 175.92 400.844 176.176 400.502C176.688 400.502 177.543 400.459 178.739 400.374C179.935 400.203 181.088 399.947 182.198 399.605C183.309 399.263 183.907 398.879 183.992 398.452C184.334 397.427 184.505 396.103 184.505 394.48C184.59 392.856 184.633 391.105 184.633 389.226V333.869C184.633 333.015 184.59 331.905 184.505 330.538C184.505 329.171 184.334 328.103 183.992 327.334C183.651 326.395 182.711 325.797 181.173 325.54C179.721 325.284 178.141 325.156 176.432 325.156C176.347 325.156 176.261 324.643 176.176 323.618C176.176 322.508 176.304 321.91 176.56 321.824C179.721 321.483 182.796 320.885 185.786 320.03C188.776 319.091 191.595 318.023 194.243 316.827C194.585 316.827 194.884 317.083 195.14 317.596C195.482 318.023 195.653 318.45 195.653 318.877C195.653 318.877 195.397 319.817 194.884 321.696C194.457 323.576 194.243 326.267 194.243 329.769V358.088C194.243 358.259 194.372 358.344 194.628 358.344C194.713 358.344 194.841 358.259 195.012 358.088C195.867 357.148 197.233 355.952 199.113 354.5C201.078 353.048 203.213 351.766 205.52 350.656C207.826 349.46 209.962 348.862 211.927 348.862ZM278.294 348.862C282.822 348.862 286.239 349.802 288.545 351.681C290.852 353.56 292.389 356.465 293.158 360.394C294.013 364.324 294.44 369.321 294.44 375.387V389.226C294.44 391.105 294.44 392.856 294.44 394.48C294.525 396.103 294.739 397.427 295.08 398.452C295.251 398.879 295.849 399.263 296.874 399.605C297.985 399.947 299.138 400.203 300.334 400.374C301.53 400.459 302.384 400.502 302.897 400.502C303.153 400.844 303.281 401.442 303.281 402.296C303.367 403.15 303.239 403.748 302.897 404.09C300.334 403.919 298.07 403.791 296.105 403.706C294.226 403.535 292.048 403.449 289.57 403.449C287.178 403.449 285 403.535 283.035 403.706C281.07 403.791 278.807 403.919 276.244 404.09C275.902 403.748 275.731 403.15 275.731 402.296C275.817 401.442 275.988 400.844 276.244 400.502C276.756 400.502 277.611 400.459 278.807 400.374C280.088 400.203 281.284 399.947 282.395 399.605C283.505 399.263 284.103 398.879 284.188 398.452C284.53 397.427 284.701 396.103 284.701 394.48C284.786 392.856 284.829 391.105 284.829 389.226V376.668C284.829 371.457 284.487 367.399 283.804 364.495C283.121 361.505 281.882 359.369 280.088 358.088C278.294 356.806 275.774 356.166 272.528 356.166C270.99 356.166 269.282 356.678 267.402 357.703C265.608 358.643 264.028 359.668 262.661 360.779C261.294 361.889 260.611 362.658 260.611 363.085V389.226C260.611 391.105 260.611 392.856 260.611 394.48C260.696 396.103 260.91 397.427 261.251 398.452C261.422 398.879 262.02 399.263 263.045 399.605C264.156 399.947 265.309 400.203 266.505 400.374C267.701 400.459 268.555 400.502 269.068 400.502C269.324 400.844 269.452 401.442 269.452 402.296C269.538 403.15 269.41 403.748 269.068 404.09C266.505 403.919 264.241 403.791 262.277 403.706C260.397 403.535 258.219 403.449 255.741 403.449C253.35 403.449 251.171 403.535 249.206 403.706C247.242 403.791 244.978 403.919 242.415 404.09C242.073 403.748 241.902 403.15 241.902 402.296C241.988 401.442 242.159 400.844 242.415 400.502C242.928 400.502 243.782 400.459 244.978 400.374C246.259 400.203 247.455 399.947 248.566 399.605C249.676 399.263 250.274 398.879 250.36 398.452C250.701 397.427 250.872 396.103 250.872 394.48C250.958 392.856 251 391.105 251 389.226V366.417C251 365.563 250.958 364.367 250.872 362.829C250.872 361.291 250.701 360.138 250.36 359.369C250.103 358.6 249.377 358.088 248.181 357.832C246.985 357.49 245.789 357.319 244.593 357.319C243.397 357.234 242.629 357.191 242.287 357.191C242.201 357.02 242.116 356.507 242.031 355.653C241.945 354.799 242.031 354.201 242.287 353.859C245.533 353.432 248.694 352.791 251.769 351.937C254.845 351.083 257.621 349.972 260.098 348.606C260.44 348.606 260.739 348.862 260.995 349.374C261.337 349.887 261.508 350.314 261.508 350.656C261.508 350.912 261.422 351.595 261.251 352.706C261.166 353.731 261.038 354.756 260.867 355.781C260.782 356.806 260.739 357.49 260.739 357.832C260.739 358.173 260.824 358.344 260.995 358.344C261.081 358.344 261.209 358.259 261.38 358.088C262.234 357.148 263.601 355.952 265.48 354.5C267.445 353.048 269.581 351.766 271.887 350.656C274.194 349.46 276.329 348.862 278.294 348.862ZM336.156 348.734C341.709 348.734 346.45 349.93 350.38 352.322C354.395 354.714 357.47 357.96 359.606 362.06C361.827 366.161 362.937 370.816 362.937 376.027C362.937 381.409 361.784 386.279 359.478 390.635C357.171 394.907 354.01 398.324 349.995 400.886C345.98 403.364 341.453 404.603 336.412 404.603C330.945 404.603 326.161 403.407 322.061 401.015C318.046 398.537 314.928 395.248 312.707 391.148C310.571 386.962 309.503 382.264 309.503 377.053C309.503 371.671 310.656 366.844 312.963 362.573C315.355 358.301 318.558 354.927 322.573 352.45C326.588 349.972 331.116 348.734 336.156 348.734ZM334.747 352.962C331.244 352.962 328.425 354.03 326.289 356.166C324.154 358.216 322.616 360.907 321.676 364.239C320.737 367.485 320.267 370.902 320.267 374.49C320.267 378.505 320.907 382.52 322.189 386.535C323.556 390.55 325.521 393.882 328.083 396.53C330.732 399.178 333.935 400.502 337.694 400.502C341.282 400.502 344.101 399.477 346.151 397.427C348.287 395.291 349.824 392.557 350.764 389.226C351.704 385.894 352.174 382.477 352.174 378.975C352.174 374.874 351.49 370.859 350.123 366.93C348.756 362.914 346.792 359.583 344.229 356.935C341.666 354.286 338.505 352.962 334.747 352.962ZM379.22 333.869C379.22 332.93 379.177 331.819 379.092 330.538C379.092 329.171 378.921 328.103 378.579 327.334C378.238 326.395 377.298 325.797 375.76 325.54C374.308 325.284 372.728 325.156 371.019 325.156C370.934 325.156 370.848 324.643 370.763 323.618C370.763 322.508 370.891 321.91 371.147 321.824C374.308 321.483 377.383 320.885 380.373 320.03C383.363 319.091 386.182 318.023 388.83 316.827C389.172 316.827 389.471 317.083 389.727 317.596C390.069 318.023 390.24 318.45 390.24 318.877C390.24 318.877 389.984 319.817 389.471 321.696C389.044 323.576 388.83 326.267 388.83 329.769V389.226C388.83 391.105 388.83 392.856 388.83 394.48C388.916 396.103 389.129 397.427 389.471 398.452C389.642 398.879 390.24 399.263 391.265 399.605C392.376 399.947 393.529 400.203 394.725 400.374C396.006 400.459 396.903 400.502 397.416 400.502C397.672 400.844 397.8 401.442 397.8 402.296C397.886 403.15 397.758 403.748 397.416 404.09C394.853 403.919 392.589 403.791 390.624 403.706C388.66 403.535 386.439 403.449 383.961 403.449C381.569 403.449 379.391 403.535 377.426 403.706C375.547 403.791 373.326 403.919 370.763 404.09C370.421 403.748 370.25 403.15 370.25 402.296C370.336 401.442 370.507 400.844 370.763 400.502C371.275 400.502 372.13 400.459 373.326 400.374C374.522 400.203 375.675 399.947 376.785 399.605C377.896 399.263 378.494 398.879 378.579 398.452C378.921 397.427 379.092 396.103 379.092 394.48C379.177 392.856 379.22 391.105 379.22 389.226V333.869ZM431.76 348.734C437.313 348.734 442.054 349.93 445.984 352.322C449.999 354.714 453.074 357.96 455.21 362.06C457.431 366.161 458.541 370.816 458.541 376.027C458.541 381.409 457.388 386.279 455.082 390.635C452.775 394.907 449.614 398.324 445.599 400.886C441.584 403.364 437.057 404.603 432.017 404.603C426.549 404.603 421.765 403.407 417.665 401.015C413.65 398.537 410.532 395.248 408.311 391.148C406.175 386.962 405.107 382.264 405.107 377.053C405.107 371.671 406.26 366.844 408.567 362.573C410.959 358.301 414.162 354.927 418.177 352.45C422.192 349.972 426.72 348.734 431.76 348.734ZM430.351 352.962C426.848 352.962 424.029 354.03 421.894 356.166C419.758 358.216 418.22 360.907 417.28 364.239C416.341 367.485 415.871 370.902 415.871 374.49C415.871 378.505 416.512 382.52 417.793 386.535C419.16 390.55 421.125 393.882 423.687 396.53C426.336 399.178 429.539 400.502 433.298 400.502C436.886 400.502 439.705 399.477 441.755 397.427C443.891 395.291 445.428 392.557 446.368 389.226C447.308 385.894 447.778 382.477 447.778 378.975C447.778 374.874 447.094 370.859 445.727 366.93C444.361 362.914 442.396 359.583 439.833 356.935C437.27 354.286 434.109 352.962 430.351 352.962ZM501.349 395.376C504.681 395.376 507.799 395.974 510.703 397.17C513.693 398.366 516.085 399.947 517.879 401.912C519.758 403.876 520.698 406.055 520.698 408.447C520.698 411.01 519.801 413.658 518.007 416.391C516.299 419.125 513.949 421.688 510.96 424.08C507.97 426.472 504.51 428.394 500.58 429.846C496.651 431.384 492.507 432.153 488.151 432.153C484.819 432.153 481.487 431.597 478.156 430.487C474.824 429.376 472.048 427.668 469.827 425.361C467.606 423.14 466.495 420.321 466.495 416.904C466.495 415.025 467.307 413.231 468.93 411.522C470.553 409.814 472.432 408.276 474.568 406.909C476.704 405.542 478.455 404.517 479.822 403.834C478.369 403.321 476.832 402.552 475.209 401.527C473.671 400.502 472.347 399.221 471.236 397.683C470.126 396.06 469.57 394.223 469.57 392.173C470.339 391.319 471.407 390.336 472.774 389.226C474.226 388.03 475.636 386.919 477.003 385.894C478.455 384.869 479.565 384.143 480.334 383.716C477.259 382.007 474.739 379.701 472.774 376.796C470.895 373.806 469.955 370.774 469.955 367.698C469.955 364.367 470.852 361.291 472.646 358.472C474.525 355.568 477.045 353.219 480.206 351.425C483.452 349.631 487.083 348.734 491.098 348.734C493.832 348.734 496.138 349.118 498.017 349.887C499.897 350.57 501.392 351.126 502.502 351.553C503.698 351.98 504.296 352.193 504.296 352.193C504.382 352.193 504.723 352.279 505.321 352.45L518.776 350.528C519.545 350.784 519.929 351.211 519.929 351.809C519.929 352.322 519.63 353.219 519.032 354.5C518.434 355.696 517.794 356.507 517.11 356.935C516.085 356.849 514.932 356.806 513.65 356.806C512.369 356.721 511.259 356.636 510.319 356.55C509.379 356.465 508.909 356.422 508.909 356.422C508.568 356.422 508.397 356.55 508.397 356.806C508.738 357.148 509.379 358.43 510.319 360.651C511.344 362.786 511.857 365.306 511.857 368.211C511.857 371.115 510.917 373.977 509.037 376.796C507.243 379.615 504.723 381.965 501.477 383.844C498.316 385.638 494.729 386.535 490.713 386.535C489.603 386.535 488.322 386.407 486.869 386.15C485.417 385.894 484.349 385.638 483.666 385.382C482.555 385.98 481.487 386.791 480.462 387.816C479.523 388.841 479.053 389.866 479.053 390.892C479.053 391.49 479.693 392.387 480.975 393.583C482.256 394.779 484.136 395.376 486.613 395.376H501.349ZM495.583 404.218C494.814 404.218 493.533 404.218 491.739 404.218C490.03 404.304 488.364 404.389 486.741 404.474C485.203 404.56 484.264 404.688 483.922 404.859C482.555 405.713 480.975 406.909 479.181 408.447C477.387 409.984 476.49 411.565 476.49 413.188C476.49 417.203 477.942 420.535 480.847 423.183C483.751 425.916 487.852 427.283 493.148 427.283C496.053 427.283 498.957 426.643 501.862 425.361C504.766 424.08 507.201 422.414 509.166 420.364C511.13 418.313 512.113 416.135 512.113 413.829C512.113 412.633 511.558 411.266 510.447 409.728C509.336 408.276 507.585 406.994 505.193 405.884C502.801 404.773 499.598 404.218 495.583 404.218ZM490.585 352.578C488.193 352.578 486.186 353.304 484.563 354.756C482.94 356.208 481.701 358.045 480.847 360.266C479.992 362.487 479.565 364.794 479.565 367.186C479.565 369.749 480.035 372.226 480.975 374.618C481.915 377.01 483.281 378.975 485.075 380.512C486.869 382.05 489.048 382.819 491.61 382.819C493.917 382.819 495.839 382.135 497.377 380.769C499 379.316 500.196 377.522 500.965 375.387C501.819 373.166 502.246 370.902 502.246 368.595C502.246 365.947 501.819 363.427 500.965 361.035C500.11 358.558 498.829 356.55 497.12 355.013C495.412 353.389 493.234 352.578 490.585 352.578ZM532.625 329.513C532.625 327.804 533.223 326.352 534.419 325.156C535.701 323.875 537.195 323.234 538.904 323.234C540.613 323.234 542.065 323.875 543.261 325.156C544.542 326.352 545.183 327.804 545.183 329.513C545.183 331.221 544.542 332.716 543.261 333.998C542.065 335.194 540.613 335.792 538.904 335.792C537.195 335.792 535.701 335.194 534.419 333.998C533.223 332.716 532.625 331.221 532.625 329.513ZM544.67 389.226C544.67 391.105 544.67 392.856 544.67 394.48C544.756 396.103 544.969 397.427 545.311 398.452C545.482 398.879 546.08 399.263 547.105 399.605C548.215 399.947 549.369 400.203 550.565 400.374C551.761 400.459 552.615 400.502 553.127 400.502C553.384 400.844 553.512 401.442 553.512 402.296C553.597 403.15 553.469 403.748 553.127 404.09C550.565 403.919 548.301 403.791 546.336 403.706C544.457 403.535 542.278 403.449 539.801 403.449C537.409 403.449 535.231 403.535 533.266 403.706C531.301 403.791 529.037 403.919 526.474 404.09C526.133 403.748 525.962 403.15 525.962 402.296C526.047 401.442 526.218 400.844 526.474 400.502C526.987 400.502 527.841 400.459 529.037 400.374C530.319 400.203 531.515 399.947 532.625 399.605C533.736 399.263 534.334 398.879 534.419 398.452C534.761 397.427 534.932 396.103 534.932 394.48C535.017 392.856 535.06 391.105 535.06 389.226V365.904C535.06 365.05 535.017 363.94 534.932 362.573C534.932 361.206 534.761 360.138 534.419 359.369C534.163 358.6 533.437 358.088 532.241 357.832C531.045 357.49 529.849 357.319 528.653 357.319C527.457 357.234 526.688 357.191 526.346 357.191C526.261 357.02 526.175 356.507 526.09 355.653C526.005 354.799 526.09 354.201 526.346 353.859C529.593 353.432 532.753 352.791 535.829 351.937C538.904 351.083 541.68 349.972 544.158 348.606C544.499 348.606 544.798 348.862 545.055 349.374C545.396 349.887 545.567 350.314 545.567 350.656C545.567 350.912 545.482 351.638 545.311 352.834C545.14 354.03 544.969 355.226 544.798 356.422C544.713 357.618 544.67 358.43 544.67 358.857V389.226ZM569.49 372.696C569.405 377.992 570.302 382.434 572.181 386.022C574.061 389.61 576.581 392.301 579.741 394.095C582.902 395.804 586.319 396.658 589.993 396.658C592.299 396.658 594.392 396.273 596.271 395.505C598.151 394.65 599.731 393.711 601.013 392.686C602.294 391.575 603.191 390.721 603.704 390.123C603.789 390.123 603.96 390.294 604.216 390.635C604.558 390.892 604.729 391.276 604.729 391.789C604.729 392.472 604.472 393.241 603.96 394.095C603.191 395.291 601.995 396.743 600.372 398.452C598.749 400.075 596.699 401.527 594.221 402.809C591.744 404.09 588.882 404.731 585.636 404.731C580.767 404.731 576.453 403.577 572.694 401.271C568.935 398.964 565.988 395.846 563.852 391.917C561.717 387.987 560.649 383.588 560.649 378.718C560.649 374.532 561.375 370.646 562.827 367.058C564.365 363.384 566.33 360.224 568.721 357.575C571.199 354.842 573.89 352.706 576.794 351.168C579.699 349.631 582.518 348.862 585.251 348.862C589.01 348.862 592.086 349.503 594.478 350.784C596.955 352.065 598.877 353.646 600.244 355.525C601.696 357.404 602.678 359.284 603.191 361.163C603.789 363.043 604.088 364.623 604.088 365.904C604.088 367.698 603.874 369.108 603.447 370.133C603.02 371.158 602.209 371.713 601.013 371.799C600.244 371.884 598.706 371.97 596.4 372.055C594.179 372.055 591.616 372.098 588.711 372.183C585.807 372.269 582.945 372.354 580.126 372.44C577.307 372.525 574.915 372.61 572.95 372.696C570.985 372.696 569.832 372.696 569.49 372.696ZM570.131 368.083H590.505C591.274 368.083 591.915 367.869 592.427 367.442C593.025 367.015 593.367 366.246 593.452 365.136C593.538 364.11 593.239 362.658 592.555 360.779C591.872 358.899 590.761 357.191 589.224 355.653C587.772 354.116 585.764 353.347 583.201 353.347C580.553 353.347 578.375 354.116 576.666 355.653C574.958 357.105 573.591 358.814 572.566 360.779C571.626 362.658 570.943 364.367 570.515 365.904C570.174 367.357 570.046 368.083 570.131 368.083ZM633.681 348.99C636.159 348.99 638.209 349.204 639.832 349.631C641.54 349.972 643.762 350.314 646.495 350.656C646.922 352.535 647.264 354.756 647.52 357.319C647.777 359.796 647.947 362.146 648.033 364.367C648.033 364.794 647.606 365.007 646.751 365.007C646.41 365.007 646.025 364.965 645.598 364.879C645.257 364.794 644.915 364.623 644.573 364.367C644.146 362.829 643.42 361.163 642.395 359.369C641.455 357.575 640.259 356.08 638.807 354.884C637.44 353.603 635.86 352.962 634.066 352.962C631.076 352.962 628.855 353.731 627.402 355.269C625.95 356.721 625.224 358.558 625.224 360.779C625.224 362.914 625.737 364.666 626.762 366.033C627.787 367.314 629.111 368.467 630.734 369.492C632.443 370.432 634.237 371.457 636.116 372.568C637.995 373.678 640.046 374.917 642.267 376.284C644.488 377.651 646.41 379.274 648.033 381.153C649.656 382.947 650.468 385.168 650.468 387.816C650.468 391.148 649.571 394.138 647.777 396.786C645.983 399.349 643.633 401.399 640.729 402.937C637.824 404.389 634.664 405.115 631.247 405.115C628.342 405.115 625.865 404.816 623.814 404.218C621.764 403.706 619.372 403.193 616.639 402.68C616.297 401.741 615.955 400.459 615.614 398.836C615.272 397.213 614.973 395.547 614.717 393.839C614.546 392.13 614.46 390.763 614.46 389.738C615.144 389.226 615.913 388.97 616.767 388.97C617.194 388.97 617.536 389.055 617.792 389.226C618.304 390.934 619.201 392.728 620.483 394.608C621.764 396.402 623.345 397.939 625.224 399.221C627.103 400.417 629.154 401.015 631.375 401.015C633.938 401.015 636.073 400.246 637.782 398.708C639.49 397.17 640.345 394.949 640.345 392.045C640.345 389.482 639.576 387.432 638.038 385.894C636.5 384.271 634.578 382.862 632.272 381.666C629.965 380.384 627.573 379.06 625.096 377.693C622.619 376.241 620.397 374.49 618.433 372.44C616.553 370.304 615.614 367.57 615.614 364.239C615.614 361.163 616.468 358.472 618.176 356.166C619.97 353.859 622.234 352.108 624.968 350.912C627.701 349.631 630.606 348.99 633.681 348.99Z" fill="white"/>
</svg>
