<svg width="232" height="48" viewBox="0 0 232 48" fill="none" xmlns="http://www.w3.org/2000/svg">
<rect width="232" height="48" rx="8" fill="#03434F"/>
<path d="M100.904 27.728H96.248L95.448 30H93.544L97.528 18.864H99.64L103.624 30H101.704L100.904 27.728ZM100.392 26.24L98.584 21.072L96.76 26.24H100.392ZM107.18 22.48C107.49 22.0747 107.911 21.7333 108.444 21.456C108.978 21.1787 109.58 21.04 110.252 21.04C111.02 21.04 111.719 21.232 112.348 21.616C112.988 21.9893 113.49 22.5173 113.852 23.2C114.215 23.8827 114.396 24.6667 114.396 25.552C114.396 26.4373 114.215 27.232 113.852 27.936C113.49 28.6293 112.988 29.1733 112.348 29.568C111.719 29.952 111.02 30.144 110.252 30.144C109.58 30.144 108.983 30.0107 108.46 29.744C107.938 29.4667 107.511 29.1253 107.18 28.72V34.192H105.356V21.184H107.18V22.48ZM112.54 25.552C112.54 24.944 112.412 24.4213 112.156 23.984C111.911 23.536 111.58 23.2 111.164 22.976C110.759 22.7413 110.322 22.624 109.852 22.624C109.394 22.624 108.956 22.7413 108.54 22.976C108.135 23.2107 107.804 23.552 107.548 24C107.303 24.448 107.18 24.976 107.18 25.584C107.18 26.192 107.303 26.7253 107.548 27.184C107.804 27.632 108.135 27.9733 108.54 28.208C108.956 28.4427 109.394 28.56 109.852 28.56C110.322 28.56 110.759 28.4427 111.164 28.208C111.58 27.9627 111.911 27.6107 112.156 27.152C112.412 26.6933 112.54 26.16 112.54 25.552ZM118.024 22.48C118.333 22.0747 118.755 21.7333 119.288 21.456C119.821 21.1787 120.424 21.04 121.096 21.04C121.864 21.04 122.563 21.232 123.192 21.616C123.832 21.9893 124.333 22.5173 124.696 23.2C125.059 23.8827 125.24 24.6667 125.24 25.552C125.24 26.4373 125.059 27.232 124.696 27.936C124.333 28.6293 123.832 29.1733 123.192 29.568C122.563 29.952 121.864 30.144 121.096 30.144C120.424 30.144 119.827 30.0107 119.304 29.744C118.781 29.4667 118.355 29.1253 118.024 28.72V34.192H116.2V21.184H118.024V22.48ZM123.384 25.552C123.384 24.944 123.256 24.4213 123 23.984C122.755 23.536 122.424 23.2 122.008 22.976C121.603 22.7413 121.165 22.624 120.696 22.624C120.237 22.624 119.8 22.7413 119.384 22.976C118.979 23.2107 118.648 23.552 118.392 24C118.147 24.448 118.024 24.976 118.024 25.584C118.024 26.192 118.147 26.7253 118.392 27.184C118.648 27.632 118.979 27.9733 119.384 28.208C119.8 28.4427 120.237 28.56 120.696 28.56C121.165 28.56 121.603 28.4427 122.008 28.208C122.424 27.9627 122.755 27.6107 123 27.152C123.256 26.6933 123.384 26.16 123.384 25.552ZM128.868 18.16V30H127.044V18.16H128.868ZM139.199 21.184L133.791 34.144H131.903L133.695 29.856L130.223 21.184H132.255L134.735 27.904L137.311 21.184H139.199Z" fill="white"/>
</svg>
