<svg width="595" height="457" viewBox="0 0 595 457" fill="none" xmlns="http://www.w3.org/2000/svg">
<path d="M542.233 39.6335C576.567 76.1002 595 117 595 183.3C595 299.967 513.1 404.533 394 456.233L364.233 410.3C475.4 350.167 497.133 272.133 505.8 222.934C487.9 232.2 464.467 235.433 441.5 233.3C381.367 227.733 333.967 178.367 333.967 117C333.967 86.0582 346.258 56.3836 368.138 34.5044C390.017 12.6251 419.691 0.333496 450.633 0.333496C486.4 0.333496 520.6 16.6668 542.233 39.6335ZM208.9 39.6335C243.233 76.1002 261.667 117 261.667 183.3C261.667 299.967 179.767 404.533 60.6667 456.233L30.9001 410.3C142.067 350.167 163.8 272.133 172.467 222.934C154.567 232.2 131.133 235.433 108.167 233.3C48.0334 227.733 0.666748 178.367 0.666748 117C0.666748 86.0582 12.9584 56.3836 34.8376 34.5044C56.7169 12.6251 86.3915 0.333496 117.333 0.333496C153.1 0.333496 187.3 16.6668 208.933 39.6335H208.9Z" fill="#0E525E"/>
</svg>
