<svg width="20" height="20" viewBox="0 0 20 20" fill="none" xmlns="http://www.w3.org/2000/svg">
<path d="M10 0.59668L18.7808 5.82343C19.0037 5.96843 19.1794 6.15918 19.3078 6.39568C19.4359 6.63218 19.5 6.88376 19.5 7.15043V17.6927C19.5 18.1978 19.325 18.6254 18.975 18.9754C18.625 19.3254 18.1974 19.5004 17.6923 19.5004H2.30775C1.80258 19.5004 1.375 19.3254 1.025 18.9754C0.675 18.6254 0.5 18.1978 0.5 17.6927V7.15043C0.5 6.88376 0.564083 6.63218 0.69225 6.39568C0.820583 6.15918 0.99625 5.96843 1.21925 5.82343L10 0.59668ZM10 11.6504L17.8 7.00043L10 2.35043L2.2 7.00043L10 11.6504ZM10 13.4042L2 8.62343V17.6927C2 17.7825 2.02883 17.8563 2.0865 17.9139C2.14417 17.9716 2.21792 18.0004 2.30775 18.0004H17.6923C17.7821 18.0004 17.8558 17.9716 17.9135 17.9139C17.9712 17.8563 18 17.7825 18 17.6927V8.62343L10 13.4042Z" fill="white"/>
</svg>