<svg width="184" height="184" viewBox="0 0 184 184" fill="none" xmlns="http://www.w3.org/2000/svg">
<circle cx="92.2182" cy="92.2573" r="91.7426" fill="white"/>
<path fill-rule="evenodd" clip-rule="evenodd" d="M92.1323 119.413C107.176 119.413 119.371 107.217 119.371 92.1738C119.371 77.1303 107.176 64.9351 92.1323 64.9351C77.0888 64.9351 64.8936 77.1303 64.8936 92.1738C64.8936 107.217 77.0888 119.413 92.1323 119.413ZM92.1323 110.333C102.161 110.333 110.292 102.203 110.292 92.1738C110.292 82.1448 102.161 74.0147 92.1323 74.0147C82.1033 74.0147 73.9732 82.1448 73.9732 92.1738C73.9732 102.203 82.1033 110.333 92.1323 110.333Z" fill="#0F0F0F"/>
<path d="M119.37 60.395C116.863 60.395 114.83 62.4276 114.83 64.9348C114.83 67.4421 116.863 69.4746 119.37 69.4746C121.877 69.4746 123.91 67.4421 123.91 64.9348C123.91 62.4276 121.877 60.395 119.37 60.395Z" fill="#0F0F0F"/>
<path fill-rule="evenodd" clip-rule="evenodd" d="M45.1651 57.108C42.1963 62.9347 42.1963 70.5623 42.1963 85.8174V98.5288C42.1963 113.784 42.1963 121.412 45.1651 127.238C47.7766 132.364 51.9436 136.531 57.0689 139.142C62.8956 142.111 70.5232 142.111 85.7784 142.111H98.4898C113.745 142.111 121.373 142.111 127.199 139.142C132.324 136.531 136.492 132.364 139.103 127.238C142.072 121.412 142.072 113.784 142.072 98.5288V85.8174C142.072 70.5623 142.072 62.9347 139.103 57.108C136.492 51.9827 132.324 47.8157 127.199 45.2042C121.373 42.2354 113.745 42.2354 98.4898 42.2354H85.7784C70.5232 42.2354 62.8956 42.2354 57.0689 45.2042C51.9436 47.8157 47.7766 51.9827 45.1651 57.108ZM98.4898 51.3149H85.7784C78.001 51.3149 72.7139 51.322 68.6274 51.6559C64.6467 51.9811 62.611 52.5706 61.191 53.2942C57.7741 55.0352 54.9961 57.8132 53.2551 61.23C52.5315 62.6501 51.9421 64.6857 51.6168 68.6664C51.283 72.753 51.2759 78.04 51.2759 85.8174V98.5288C51.2759 106.306 51.283 111.593 51.6168 115.68C51.9421 119.661 52.5315 121.696 53.2551 123.116C54.9961 126.533 57.7741 129.311 61.191 131.052C62.611 131.776 64.6467 132.365 68.6274 132.69C72.7139 133.024 78.001 133.031 85.7784 133.031H98.4898C106.267 133.031 111.554 133.024 115.641 132.69C119.622 132.365 121.657 131.776 123.077 131.052C126.494 129.311 129.272 126.533 131.013 123.116C131.737 121.696 132.326 119.661 132.651 115.68C132.985 111.593 132.992 106.306 132.992 98.5288V85.8174C132.992 78.04 132.985 72.753 132.651 68.6664C132.326 64.6857 131.737 62.6501 131.013 61.23C129.272 57.8132 126.494 55.0352 123.077 53.2942C121.657 52.5706 119.622 51.9811 115.641 51.6559C111.554 51.322 106.267 51.3149 98.4898 51.3149Z" fill="#0F0F0F"/>
</svg>
