<svg width="184" height="184" viewBox="0 0 184 184" fill="none" xmlns="http://www.w3.org/2000/svg">
<circle cx="91.7426" cy="91.7426" r="91.7426" fill="white"/>
<path d="M72.9558 83.6238H82.387V114.232H72.9558V83.6238Z" fill="black" stroke="black" stroke-width="0.192866"/>
<path d="M99.0681 88.3685L99.2569 88.3962C99.5663 87.365 100.569 86.0992 102.188 85.0897C103.805 84.082 106.029 83.3347 108.769 83.3347C112.172 83.3347 115.197 84.4364 117.371 86.7138C119.546 88.9914 120.881 92.4559 120.881 97.2018V114.232H110.158V98.3976C110.158 96.3037 109.732 94.5257 108.821 93.2686C107.907 92.0068 106.512 91.2808 104.603 91.2808C101.676 91.2808 100.048 93.2488 99.3066 95.1213C99.1656 95.4639 99.107 95.8719 99.0827 96.3068C99.0638 96.6451 99.0655 97.006 99.0671 97.3706C99.0676 97.4749 99.0681 97.5795 99.0681 97.684V114.232H88.4416L88.4426 114.011L88.4467 113.11C88.4501 112.333 88.4549 111.22 88.4601 109.877C88.4707 107.19 88.4833 103.58 88.4918 99.8901C88.5083 92.6868 88.5087 85.1714 88.4457 83.624H99.0681V88.3685Z" fill="black" stroke="black" stroke-width="0.192866"/>
<path d="M71.6824 74.3287C71.6824 72.8307 72.2555 71.5211 73.262 70.5854C74.2689 69.6495 75.715 69.0828 77.4684 69.0828C79.2214 69.0828 80.6284 69.6492 81.6062 70.5845C82.5838 71.5196 83.139 72.8298 83.1772 74.3302C83.1865 75.7896 82.6371 77.0989 81.6426 78.0438C80.6478 78.989 79.202 79.5747 77.4105 79.5747H77.3334C73.8921 79.5747 71.6824 77.2614 71.6824 74.3287Z" fill="black" stroke="black" stroke-width="0.192866"/>
<mask id="path-5-inside-1_833_3139" fill="white">
<path d="M134.033 43H50.7147C46.4523 43 43 46.4523 43 50.7147V134.033C43 138.295 46.4523 141.748 50.7147 141.748H134.033C138.295 141.748 141.748 138.295 141.748 134.033V50.7147C141.748 46.4523 138.295 43 134.033 43ZM135.962 134.033C135.962 135.094 135.094 135.962 134.033 135.962H50.7147C49.6539 135.962 48.786 135.094 48.786 134.033V50.7147C48.786 49.6539 49.6539 48.786 50.7147 48.786H134.033C135.094 48.786 135.962 49.6539 135.962 50.7147V134.033Z"/>
</mask>
<path d="M134.033 43H50.7147C46.4523 43 43 46.4523 43 50.7147V134.033C43 138.295 46.4523 141.748 50.7147 141.748H134.033C138.295 141.748 141.748 138.295 141.748 134.033V50.7147C141.748 46.4523 138.295 43 134.033 43ZM135.962 134.033C135.962 135.094 135.094 135.962 134.033 135.962H50.7147C49.6539 135.962 48.786 135.094 48.786 134.033V50.7147C48.786 49.6539 49.6539 48.786 50.7147 48.786H134.033C135.094 48.786 135.962 49.6539 135.962 50.7147V134.033Z" fill="black"/>
<path d="M134.033 -8.9724H50.7147V94.9724H134.033V-8.9724ZM50.7147 -8.9724C17.7487 -8.9724 -8.9724 17.7487 -8.9724 50.7147H94.9724C94.9724 75.1559 75.1559 94.9724 50.7147 94.9724V-8.9724ZM-8.9724 50.7147V134.033H94.9724V50.7147H-8.9724ZM-8.9724 134.033C-8.9724 166.999 17.7487 193.72 50.7147 193.72V89.7752C75.1559 89.7752 94.9724 109.592 94.9724 134.033H-8.9724ZM50.7147 193.72H134.033V89.7752H50.7147V193.72ZM134.033 193.72C166.999 193.72 193.72 166.999 193.72 134.033H89.7752C89.7752 109.592 109.592 89.7752 134.033 89.7752V193.72ZM193.72 134.033V50.7147H89.7752V134.033H193.72ZM193.72 50.7147C193.72 17.7487 166.999 -8.9724 134.033 -8.9724V94.9724C109.592 94.9724 89.7752 75.1559 89.7752 50.7147H193.72ZM83.9892 134.033C83.9892 106.39 106.39 83.9892 134.033 83.9892V187.934C163.797 187.934 187.934 163.797 187.934 134.033H83.9892ZM134.033 83.9892H50.7147V187.934H134.033V83.9892ZM50.7147 83.9892C78.3575 83.9892 100.758 106.39 100.758 134.033H-3.18641C-3.18641 163.797 20.9503 187.934 50.7147 187.934V83.9892ZM100.758 134.033V50.7147H-3.18641V134.033H100.758ZM100.758 50.7147C100.758 78.3575 78.3575 100.758 50.7147 100.758V-3.18641C20.9503 -3.18641 -3.18641 20.9503 -3.18641 50.7147H100.758ZM50.7147 100.758H134.033V-3.18641H50.7147V100.758ZM134.033 100.758C106.39 100.758 83.9892 78.3575 83.9892 50.7147H187.934C187.934 20.9503 163.797 -3.18641 134.033 -3.18641V100.758ZM83.9892 50.7147V134.033H187.934V50.7147H83.9892Z" fill="black" mask="url(#path-5-inside-1_833_3139)"/>
</svg>
