<svg width="184" height="184" viewBox="0 0 184 184" fill="none" xmlns="http://www.w3.org/2000/svg">
<circle cx="92.2182" cy="91.8344" r="91.7426" fill="white"/>
<path fill-rule="evenodd" clip-rule="evenodd" d="M50.935 90.1147C50.935 66.4896 70.0986 47.3377 93.7379 47.3377C117.377 47.3377 136.541 66.4896 136.541 90.1147C136.541 113.74 117.377 132.892 93.7379 132.892C85.3173 132.892 77.4792 130.467 70.8659 126.279C69.6351 125.5 68.127 125.292 66.7309 125.708L52.2325 130.033L57.6913 117.267C58.3366 115.758 58.2053 114.03 57.3396 112.636C53.28 106.098 50.935 98.3878 50.935 90.1147ZM93.7379 37.2725C64.5363 37.2725 40.8636 60.9308 40.8636 90.1147C40.8636 99.3651 43.2462 108.073 47.4333 115.644L38.7509 135.947C37.9834 137.742 38.3236 139.818 39.6239 141.275C40.9241 142.732 42.9499 143.305 44.8215 142.747L67.4791 135.989C75.2191 140.423 84.1888 142.957 93.7379 142.957C122.94 142.957 146.612 119.299 146.612 90.1147C146.612 60.9308 122.94 37.2725 93.7379 37.2725ZM105.282 101.098L98.6643 105.757C95.5649 103.992 92.1381 101.529 88.7008 98.0939C85.1275 94.5228 82.4783 90.8359 80.525 87.454L84.7307 83.8864C86.5354 82.3555 87.0294 79.7744 85.9176 77.6856L80.5588 67.6204C79.8372 66.2651 78.5361 65.3131 77.0254 65.035C75.5146 64.7569 73.9594 65.1832 72.802 66.1927L71.2132 67.5785C67.3925 70.911 65.1329 76.3873 67.0057 81.9322C68.9473 87.6805 73.0909 96.7276 81.5794 105.211C90.712 114.338 99.9887 117.932 105.414 119.328C109.785 120.453 113.921 118.945 116.835 116.572L119.814 114.146C121.088 113.109 121.775 111.515 121.656 109.877C121.535 108.239 120.623 106.763 119.211 105.922L110.759 100.889C109.052 99.8729 106.907 99.9545 105.282 101.098Z" fill="#0F0F0F"/>
</svg>
