<svg width="131" height="128" viewBox="0 0 131 128" fill="none" xmlns="http://www.w3.org/2000/svg">
<path fill-rule="evenodd" clip-rule="evenodd" d="M15.1999 63.5338C15.1999 35.1286 38.2409 12.1017 66.6632 12.1017C95.0855 12.1017 118.127 35.1286 118.127 63.5338C118.127 91.9389 95.0855 114.966 66.6632 114.966C56.5388 114.966 47.1148 112.051 39.1635 107.016C37.6837 106.079 35.8704 105.829 34.1918 106.329L16.76 111.528L23.3233 96.1799C24.0991 94.3659 23.9412 92.288 22.9003 90.6119C18.0194 82.7513 15.1999 73.4808 15.1999 63.5338ZM66.6632 0C31.5532 0 3.09087 28.4451 3.09087 63.5338C3.09087 74.6559 5.9555 85.125 10.9898 94.2279L0.550693 118.639C-0.372149 120.797 0.0369059 123.294 1.60024 125.045C3.16358 126.797 5.59925 127.486 7.84954 126.815L35.0914 118.69C44.3974 124.021 55.182 127.068 66.6632 127.068C101.773 127.068 130.236 98.6227 130.236 63.5338C130.236 28.4451 101.773 0 66.6632 0ZM80.5432 76.7392L72.5863 82.3404C68.8598 80.219 64.7397 77.2577 60.6069 73.1274C56.3106 68.8338 53.1254 64.4009 50.7769 60.3348L55.8335 56.0453C58.0034 54.2046 58.5974 51.1013 57.2605 48.5899L50.8176 36.4883C49.9499 34.8587 48.3856 33.7141 46.5692 33.3797C44.7527 33.0454 42.8829 33.558 41.4914 34.7717L39.5811 36.4379C34.9873 40.4447 32.2705 47.0289 34.5222 53.6958C36.8567 60.607 41.8386 71.4846 52.0447 81.6845C63.025 92.6583 74.1787 96.9798 80.7012 98.6584C85.9565 100.01 90.9297 98.1979 94.4341 95.3443L98.0153 92.4278C99.5471 91.1807 100.374 89.2644 100.229 87.2949C100.085 85.3253 98.9877 83.55 97.29 82.5389L87.1287 76.4881C85.0762 75.2664 82.497 75.3644 80.5432 76.7392Z" fill="white"/>
</svg>
