<svg width="121" height="121" viewBox="0 0 121 121" fill="none" xmlns="http://www.w3.org/2000/svg">
<path d="M43.4333 49.9238H31.5703V87.89H43.4333V49.9238Z" fill="white"/>
<path d="M75.8343 49.5674C69.0351 49.5674 64.7796 53.276 63.9951 55.8911V49.924H50.6582C50.8246 53.0859 50.6582 87.8902 50.6582 87.8902H63.9951V67.3737C63.9951 66.2088 63.9476 65.0677 64.2804 64.2594C65.1838 61.9771 67.157 59.5998 70.6992 59.5998C75.335 59.5998 77.4271 63.1183 77.4271 68.2533V87.8902H90.8829V66.7794C90.8829 55.0353 84.2739 49.5674 75.8343 49.5674Z" fill="white"/>
<path d="M37.2509 32C32.8766 32 30 34.829 30 38.5852C30 42.2701 32.7815 45.1705 37.0845 45.1705H37.1796C41.649 45.1705 44.4305 42.2464 44.4067 38.5852C44.3116 34.829 41.6252 32 37.2509 32Z" fill="white"/>
<path fill-rule="evenodd" clip-rule="evenodd" d="M3.56953 17.8818C0 24.8874 0 34.0583 0 52.4V67.6833C0 86.025 0 95.1961 3.56953 102.201C6.70938 108.364 11.7195 113.374 17.8818 116.514C24.8874 120.083 34.0583 120.083 52.4 120.083H67.6833C86.025 120.083 95.1961 120.083 102.201 116.514C108.364 113.374 113.374 108.364 116.514 102.201C120.083 95.1961 120.083 86.025 120.083 67.6833V52.4C120.083 34.0583 120.083 24.8874 116.514 17.8818C113.374 11.7195 108.364 6.70938 102.201 3.56953C95.1961 0 86.025 0 67.6833 0H52.4C34.0583 0 24.8874 0 17.8818 3.56953C11.7195 6.70938 6.70938 11.7195 3.56953 17.8818ZM67.6833 10.9167H52.4C43.049 10.9167 36.6923 10.9252 31.7789 11.3266C26.9928 11.7176 24.5453 12.4264 22.8379 13.2963C18.7297 15.3896 15.3896 18.7297 13.2963 22.8379C12.4264 24.5453 11.7176 26.9928 11.3266 31.7789C10.9252 36.6923 10.9167 43.049 10.9167 52.4V67.6833C10.9167 77.0346 10.9252 83.3908 11.3266 88.3044C11.7176 93.0908 12.4264 95.5383 13.2963 97.2457C15.3896 101.354 18.7297 104.694 22.8379 106.787C24.5453 107.657 26.9928 108.366 31.7789 108.757C36.6923 109.158 43.049 109.167 52.4 109.167H67.6833C77.0346 109.167 83.3908 109.158 88.3044 108.757C93.0908 108.366 95.5383 107.657 97.2457 106.787C101.354 104.694 104.694 101.354 106.787 97.2457C107.657 95.5383 108.366 93.0908 108.757 88.3044C109.158 83.3908 109.167 77.0346 109.167 67.6833V52.4C109.167 43.049 109.158 36.6923 108.757 31.7789C108.366 26.9928 107.657 24.5453 106.787 22.8379C104.694 18.7297 101.354 15.3896 97.2457 13.2963C95.5383 12.4264 93.0908 11.7176 88.3044 11.3266C83.3908 10.9252 77.0346 10.9167 67.6833 10.9167Z" fill="white"/>
</svg>
