<svg width="132" height="131" viewBox="0 0 132 131" fill="none" xmlns="http://www.w3.org/2000/svg">
<path fill-rule="evenodd" clip-rule="evenodd" d="M65.7363 98.251C83.8236 98.251 98.4863 83.5883 98.4863 65.501C98.4863 47.4136 83.8236 32.751 65.7363 32.751C47.649 32.751 32.9863 47.4136 32.9863 65.501C32.9863 83.5883 47.649 98.251 65.7363 98.251ZM65.7363 87.3343C77.7943 87.3343 87.5697 77.559 87.5697 65.501C87.5697 53.4428 77.7943 43.6676 65.7363 43.6676C53.6781 43.6676 43.903 53.4428 43.903 65.501C43.903 77.559 53.6781 87.3343 65.7363 87.3343Z" fill="white"/>
<path d="M98.4857 27.2896C95.471 27.2896 93.0273 29.7334 93.0273 32.7479C93.0273 35.7624 95.471 38.2062 98.4857 38.2062C101.5 38.2062 103.944 35.7624 103.944 32.7479C103.944 29.7334 101.5 27.2896 98.4857 27.2896Z" fill="white"/>
<path fill-rule="evenodd" clip-rule="evenodd" d="M9.2668 23.3374C5.69727 30.343 5.69727 39.5139 5.69727 57.8556V73.1389C5.69727 91.4805 5.69727 100.652 9.2668 107.657C12.4066 113.819 17.4167 118.83 23.5791 121.969C30.5847 125.539 39.7556 125.539 58.0973 125.539H73.3806C91.7222 125.539 100.893 125.539 107.899 121.969C114.061 118.83 119.071 113.819 122.211 107.657C125.781 100.652 125.781 91.4805 125.781 73.1389V57.8556C125.781 39.5139 125.781 30.343 122.211 23.3374C119.071 17.175 114.061 12.165 107.899 9.0251C100.893 5.45557 91.7222 5.45557 73.3806 5.45557H58.0973C39.7556 5.45557 30.5847 5.45557 23.5791 9.0251C17.4167 12.165 12.4066 17.175 9.2668 23.3374ZM73.3806 16.3722H58.0973C48.7463 16.3722 42.3896 16.3807 37.4761 16.7822C32.69 17.1732 30.2425 17.882 28.5352 18.7519C24.4269 20.8452 21.0869 24.1852 18.9936 28.2935C18.1237 30.0008 17.4149 32.4483 17.0239 37.2344C16.6224 42.1479 16.6139 48.5046 16.6139 57.8556V73.1389C16.6139 82.4901 16.6224 88.8464 17.0239 93.7599C17.4149 98.5464 18.1237 100.994 18.9936 102.701C21.0869 106.809 24.4269 110.149 28.5352 112.242C30.2425 113.112 32.69 113.822 37.4761 114.212C42.3896 114.614 48.7463 114.622 58.0973 114.622H73.3806C82.7318 114.622 89.0881 114.614 94.0016 114.212C98.7881 113.822 101.236 113.112 102.943 112.242C107.051 110.149 110.391 106.809 112.484 102.701C113.354 100.994 114.063 98.5464 114.454 93.7599C114.855 88.8464 114.864 82.4901 114.864 73.1389V57.8556C114.864 48.5046 114.855 42.1479 114.454 37.2344C114.063 32.4483 113.354 30.0008 112.484 28.2935C110.391 24.1852 107.051 20.8452 102.943 18.7519C101.236 17.882 98.7881 17.1732 94.0016 16.7822C89.0881 16.3807 82.7318 16.3722 73.3806 16.3722Z" fill="white"/>
</svg>
